<svg id="Layer_1" data-name="Layer 1" xmlns="http://www.w3.org/2000/svg" viewBox="0 0 501.46 206.81"><defs><style>.cls-1{fill:#00e5e5;}</style></defs><title>Jet1</title><circle class="cls-1" cx="127.66" cy="24.85" r="24.85"/><circle class="cls-1" cx="24.85" cy="24.85" r="24.85"/><path class="cls-1" d="M461,1177.32v77.45s-2,61.19-72.25,64.76c-74.64,2.81-74.08-63.06-73.57-86.55l42.93.08s-6.21,43.49,27.32,43.83c31.15.32,32.68-26.55,32.42-47s1-52.59,1-52.59Z" transform="translate(-311.77 -1112.81)"/><path class="cls-1" d="M542.58,1149.93c-35.46,9.1-51.17,32.08-57.91,53.55a92,92,0,0,0,17.22,87c12.93,15.25,33.11,28.8,64,28.8,70.63,0,78.46-56.68,78.46-56.68l-44.76-.32s-11.57,19.55-32.17,19.55-38.13-10.72-44.6-33.36H648.11s10.07-86.23-63.77-100.09A96.37,96.37,0,0,0,542.58,1149.93Zm-18.9,65s7.39-32.17,40.55-32.17,42.51,32.17,42.51,32.17Z" transform="translate(-311.77 -1112.81)"/><path class="cls-1" d="M667.51,1123.36h42.21v35.07h60.94v38.8h-60.6v55.83s2.05,26.22,30.3,26.22,30.3-29.28,30.3-29.28v-17.1h41.87s12.94,79.66-72.51,86.38c-29.87,0-47.64-12.66-58.1-26.22a70.8,70.8,0,0,1-14.41-43.29Z" transform="translate(-311.77 -1112.81)"/></svg>